# xmcd
#
# Track frame offsets:
#	150
#	9637
#	24640
#	39905
#	58395
#	76227
#	91550
#	111250
#	124025
#	134002
#	148862
#	158430
#
# Disc length: 2265
#
# Revision: 2
# Processed by: cddbd v1.5.1PL0 Copyright (c) Steve Scherf et al.
# Submitted via: audiograbber 1.80.04
# Normalized: r1:DSETVAR1
#
DISCID=9808d70c
DTITLE=Various Artist - 12 Popular All Time Favorites
DYEAR=1900
DGENRE=
TTITLE0=Rock 'n Roll Hits Of The 50s - La Bamba
TTITLE1=Mexican Fiesta - Espana Cani
TTITLE2=Themes And Dreams - Bilitis
TTITLE3=Top Gun - Take My Breath Away
TTITLE4=Tchaikovsky - Serenade For Strings
TTITLE5=Best Of The Big Bands - In The Mood
TTITLE6=Todays Power Hits - La Isla Bonita
TTITLE7=The Beatles Songbook - Michelle
TTITLE8=Worlds Greatest Marches - River Kwai March
TTITLE9=For Lovers Only - Somewhere My Love
TTITLE10=Country Gold - From A Jack To A King
TTITLE11=International Festival - Santa Lucia
EXTD=
EXTT0=
EXTT1=
EXTT2=
EXTT3=
EXTT4=
EXTT5=
EXTT6=
EXTT7=
EXTT8=
EXTT9=
EXTT10=
EXTT11=
PLAYORDER=
